<?xml version="1.0" encoding="utf-8"?>
<!-- Generator: Adobe Illustrator 16.0.4, SVG Export Plug-In . SVG Version: 6.00 Build 0)  -->
<!DOCTYPE svg PUBLIC "-//W3C//DTD SVG 1.1//EN" "http://www.w3.org/Graphics/SVG/1.1/DTD/svg11.dtd">
<svg version="1.1" id="Layer_1" xmlns="http://www.w3.org/2000/svg" xmlns:xlink="http://www.w3.org/1999/xlink" x="0px" y="0px"
	 width="60px" height="60px" viewBox="50 50 60 60" enable-background="new 50 50 60 60" xml:space="preserve">
<rect x="46.702" y="47.975" fill="#FFFFFF" width="65.298" height="65.299"/>
<path fill="#85B91E" d="M96.379,80.82c8.291-8.427,10.511-25.805,11.252-26.775c0.025-0.038-0.012-0.056-0.104-0.059
	c0.03-0.083,0.027-0.128-0.014-0.116c-1.177,0.331-18.143-4.034-29.035,0.556c-10.894,4.585-8.184,15.12-7.895,17.957
	c0.291,2.839,1.493,5.994,1.493,5.994s2.549,1.344,4.7,3.133C78.922,83.302,88.086,89.244,96.379,80.82z"/>
<path fill="#FFFFFF" d="M72.652,63.191c0,0,4.565-10.608,23.96-8.033C96.612,55.158,77.422,57.655,72.652,63.191z"/>
<path fill="#85B91E" d="M87.201,106.406C93.856,102.993,98.646,93,99.283,92.563c0.022-0.016,0.005-0.035-0.052-0.055
	c0.035-0.042,0.042-0.072,0.015-0.072C98.474,92.4,89.152,86.407,81.7,86.997c-7.454,0.59-7.919,7.454-8.313,9.213
	c-0.389,1.765-0.294,3.898-0.294,3.898s1.264,1.312,2.198,2.816C76.226,104.424,80.548,109.815,87.201,106.406z"/>
<path fill="#FFFFFF" d="M76.458,91.103c0,0,4.85-5.463,15.988-0.06C92.446,91.043,80.424,88.725,76.458,91.103z"/>
<path fill="#582520" d="M33.67,114.441l14.721,11.094c3.061-2.294,9.243-7.674,10.859-14.726c0.714-3.117,1.626-6.659,2.771-10.296
	c3.489-0.256,7.049-0.174,10.146,0.142c10.321,1.052,17.948-5.188,17.948-5.188c-4.868,3.731-17.197,2.991-26.917,1.517
	c2.242-6.307,5.231-12.593,9.204-17.206c7.027-8.159,22.36-14.149,22.36-14.149c-19.96,3.842-33.3,18.871-38.756,30.057
	c-1.119-0.236-2.128-0.468-2.977-0.68c-8.124-2.027-19.723,4.438-18.294,12.242C35.422,111.006,34.652,113.187,33.67,114.441z
	 M53.652,101.952c-0.174,0.721-0.297,1.398-0.365,2.023c-0.595,5.424-4.461,8.896-7.873,10.94c-0.099-1.885-0.091-3.821,0.107-5.682
	C45.906,105.607,49.204,103.303,53.652,101.952z"/>
</svg>
