<?xml version="1.0" encoding="utf-8"?>
<!-- Generator: Adobe Illustrator 16.0.4, SVG Export Plug-In . SVG Version: 6.00 Build 0)  -->
<!DOCTYPE svg PUBLIC "-//W3C//DTD SVG 1.1//EN" "http://www.w3.org/Graphics/SVG/1.1/DTD/svg11.dtd">
<svg version="1.1" id="Layer_1" xmlns="http://www.w3.org/2000/svg" xmlns:xlink="http://www.w3.org/1999/xlink" x="0px" y="0px"
	 width="60px" height="60px" viewBox="0 0 60 60" enable-background="new 0 0 60 60" xml:space="preserve">
<rect x="-2.649" y="-2.359" fill="#FFFFFF" width="65.297" height="65.298"/>
<path fill="#85B91E" d="M153.713,30.487c8.291-8.428,10.512-25.805,11.252-26.775c0.025-0.038-0.012-0.057-0.104-0.059
	c0.029-0.084,0.027-0.129-0.014-0.116c-1.179,0.331-18.145-4.034-29.035,0.556c-10.896,4.586-8.186,15.12-7.896,17.957
	c0.291,2.84,1.493,5.994,1.493,5.994s2.549,1.344,4.698,3.132C136.256,32.969,145.42,38.91,153.713,30.487z"/>
<path fill="#FFFFFF" d="M129.986,12.858c0,0,4.563-10.608,23.959-8.033C153.945,4.825,134.756,7.321,129.986,12.858z"/>
<path fill="#85B91E" d="M144.535,56.072c6.654-3.412,11.445-13.406,12.082-13.844c0.021-0.017,0.005-0.035-0.053-0.056
	c0.035-0.041,0.043-0.071,0.016-0.071c-0.771-0.035-10.094-6.029-17.546-5.438c-7.454,0.59-7.919,7.453-8.313,9.213
	c-0.389,1.765-0.293,3.896-0.293,3.896s1.264,1.312,2.197,2.816C133.561,54.09,137.882,59.48,144.535,56.072z"/>
<path fill="#FFFFFF" d="M133.792,40.77c0,0,4.851-5.463,15.987-0.061C149.779,40.709,137.758,38.391,133.792,40.77z"/>
<path fill="#582520" d="M91.004,64.107l14.721,11.094c3.062-2.293,9.243-7.674,10.859-14.727c0.714-3.117,1.626-6.658,2.771-10.295
	c3.487-0.257,7.049-0.175,10.146,0.141c10.321,1.053,17.948-5.188,17.948-5.188c-4.868,3.729-17.197,2.992-26.918,1.519
	c2.242-6.307,5.232-12.594,9.205-17.208c7.027-8.158,22.359-14.148,22.359-14.148c-19.959,3.842-33.301,18.871-38.757,30.057
	c-1.118-0.234-2.128-0.468-2.978-0.681c-8.125-2.026-19.723,4.438-18.295,12.242C92.756,60.672,91.986,62.854,91.004,64.107z
	 M110.986,51.619c-0.174,0.721-0.297,1.396-0.365,2.021c-0.596,5.424-4.461,8.896-7.873,10.94c-0.1-1.888-0.092-3.822,0.107-5.685
	C103.24,55.273,106.538,52.969,110.986,51.619z"/>
<path fill="#85B91E" d="M56.893,27.534c0-1.206-0.679-2.251-1.674-2.781c0.033-0.146,0.055-0.296,0.055-0.454
	c0-1.127-0.914-2.042-2.043-2.042c-0.004,0-0.006,0.001-0.01,0.001c0.416-0.312,0.69-0.803,0.69-1.364
	c0-0.939-0.763-1.702-1.702-1.702c-0.07,0-0.143,0.012-0.211,0.021c-0.002-0.005-0.003-0.009-0.004-0.014
	c1.033-0.516,1.746-1.582,1.746-2.817c0-1.74-1.408-3.149-3.148-3.149c-0.296,0-0.58,0.043-0.854,0.119
	c0.156-0.291,0.257-0.618,0.257-0.972c0-1.128-0.915-2.042-2.044-2.042c-0.35,0-0.672,0.095-0.959,0.25
	c0.175-0.269,0.279-0.587,0.279-0.932c0-0.939-0.764-1.701-1.705-1.701c-0.558,0-1.049,0.272-1.359,0.688
	c-0.087-0.067-0.172-0.134-0.26-0.2c0.271-0.439,0.428-0.956,0.428-1.51c0-1.599-1.295-2.895-2.895-2.895
	c-1.119,0-2.088,0.637-2.57,1.568c-0.057-0.023-0.11-0.044-0.167-0.066c0.005-0.046,0.015-0.092,0.015-0.139
	c0-0.94-0.764-1.703-1.703-1.703c-0.621,0-1.16,0.337-1.457,0.834c-0.059-0.014-0.117-0.027-0.176-0.04
	c0.008-0.094,0.016-0.188,0.016-0.284c0-1.739-1.41-3.149-3.15-3.149c-1.633,0-2.975,1.241-3.134,2.832
	c-0.091,0.003-0.184,0.002-0.274,0.007c0-0.01,0.003-0.02,0.003-0.029c0-1.129-0.915-2.044-2.042-2.044
	c-0.946,0-1.732,0.644-1.966,1.514c-0.571-1.004-1.648-1.685-2.887-1.685c-1.834,0-3.32,1.487-3.32,3.321
	c0,0.503,0.116,0.98,0.318,1.409C18.78,6.298,18.558,6.25,18.324,6.25c-0.94,0-1.703,0.763-1.703,1.704
	c0,0.06,0.012,0.116,0.019,0.174c-0.103,0.072-0.205,0.144-0.306,0.217c-0.41-0.373-0.946-0.606-1.543-0.606
	c-1.269,0-2.299,1.03-2.299,2.299c0,0.196,0.032,0.383,0.078,0.564c-0.202-0.056-0.411-0.096-0.631-0.096
	c-1.27,0-2.299,0.991-2.299,2.215c0,0.357,0.097,0.69,0.254,0.989c-0.297-0.089-0.609-0.139-0.934-0.139
	c-1.788,0-3.236,1.449-3.236,3.236c0,1,0.455,1.894,1.168,2.487c-1.357,0.351-2.359,1.58-2.359,3.046
	c0,1.303,0.791,2.42,1.919,2.899c-0.733,0.37-1.238,1.101-1.238,1.954c0,0.728,0.37,1.368,0.933,1.772
	c-1.576,0.934-2.636,2.646-2.636,4.611c0,2.963,2.401,5.363,5.364,5.363c0.339,0,0.67-0.035,0.993-0.096
	c0.016,0.027,0.031,0.055,0.046,0.079c-0.277,0.392-0.444,0.864-0.444,1.38c0,1.315,1.067,2.383,2.384,2.383
	c0.242,0,0.469-0.045,0.689-0.113c0.109,0.125,0.217,0.25,0.33,0.373c-0.215,0.466-0.338,0.982-0.338,1.529
	c0,2.021,1.639,3.66,3.661,3.66c0.831,0,1.596-0.279,2.209-0.748c0.062,0.037,0.124,0.072,0.187,0.108
	c-0.057,0.204-0.097,0.416-0.097,0.64c0,1.315,1.067,2.385,2.384,2.385c0.774,0,1.456-0.375,1.89-0.947
	c0.166,1.584,1.505,2.818,3.133,2.818c1.239,0,2.307-0.717,2.821-1.754c0.062,1.072,0.943,1.926,2.031,1.926
	c0.66,0,1.241-0.318,1.614-0.806c0.351,0.286,0.793,0.464,1.28,0.464c0.69,0,1.299-0.345,1.668-0.869
	c0.576,0.637,1.406,1.039,2.334,1.039c1.74,0,3.148-1.41,3.148-3.148c0-0.243-0.029-0.479-0.082-0.707
	c0.27,0.177,0.59,0.279,0.934,0.279c0.94,0,1.705-0.762,1.705-1.701c0-0.16-0.03-0.312-0.071-0.461
	c0.424,0.389,0.983,0.631,1.603,0.631c1.315,0,2.385-1.066,2.385-2.385c0-0.381-0.1-0.738-0.26-1.058
	c0.461,0.239,0.981,0.376,1.536,0.376c1.834,0,3.32-1.486,3.32-3.318c0-0.476-0.101-0.922-0.279-1.332
	c0.745-0.18,1.302-0.846,1.302-1.648c0-0.077-0.014-0.15-0.022-0.229c0.172,0.037,0.35,0.059,0.532,0.059
	c1.412,0,2.556-1.143,2.556-2.555c0-1.075-0.667-1.99-1.606-2.367c0.151-0.256,0.244-0.549,0.244-0.867
	c0-0.52-0.236-0.979-0.602-1.29C55.613,30.544,56.893,29.19,56.893,27.534z"/>
<path fill="#582520" d="M44.146,32.121c1.629-0.754,2.619-2.309,3.246-3.187c0.737-1.033,2.51-2.141,2.51-2.141
	c-1.939,0.401-3.274,2.499-4.719,3.768c0.135-0.907,0.449-2.74,1.028-4.58c0.812-2.583,3.247-3.617,3.247-3.617
	c-1.182,0.222-3.102,1.478-3.986,3.912c-0.668,1.837-0.873,3.882-0.935,4.779c-1.761,1.116-5.996,1.965-7.772,2.676
	c-1.847,0.738-2.73,2.361-2.73,2.361c0-1.844,1.346-4.096,2.25-5.627c0.693-1.174,1.078-2.399,1.057-3.474
	c0.713-1.007,2.002-2.228,2.523-2.634c0.664-0.516,2.287-1.106,3.689-2.361s2.51-4.428,2.51-4.428
	c-0.959,2.583-3.321,4.686-5.684,5.812c-1.773,0.845-2.798,2.034-3.197,2.572c-0.32-1.29,0.104-3.83,0.318-4.621
	c0.223-0.812,1.551-2.51,1.551-2.51c-2.658,1.919-2.287,5.092-2.436,7.602c-0.148,2.51,0,2.361-1.182,3.764
	c-1.182,1.402-2.51,4.429-2.51,4.429c0.887-1.55-0.222-6.863-0.959-8.267c-0.738-1.402-2.142-5.166-1.551-7.454
	s0.812-4.281,0.812-4.281s-0.621,1.872-1.095,3.632c-0.115,0.428-0.221,0.929-0.309,1.534c-0.442,3.101,1.624,7.177,2.122,10.186
	s-0.276,4.724-0.276,4.724c-0.295-1.771-2.805-3.543-4.28-4.577c-1.477-1.032-1.772-3.099-1.55-5.535
	c0.221-2.436-0.665-3.543-0.665-3.543c0.643,0.965-0.034,3.253-0.116,5.337c-0.426-0.409-1.234-1.007-2.43-1.628
	c-1.919-0.996-2.472-1.863-2.177-2.97c0,0-0.59,0.627-0.11,1.827c0.402,1.004,3.153,2.462,4.776,4.123
	c0.043,0.294,0.106,0.576,0.204,0.839c0.887,2.363,2.806,2.806,4.429,4.576c1.624,1.771,0.59,5.314,0.59,5.314
	c-2.95-3.098-8.183-3.413-12.057-3.727c-3.208-3.354-2.894-6.466-3.441-8.803c-0.553-2.362-1.55-2.897-1.55-2.897
	c1.254,1.181,1.255,5.535,1.845,7.75c0.479,1.795,1.733,3.298,2.191,3.804c-3.699-0.795-7.948-4.246-7.948-4.246
	c1.121,1.208,2.25,2.147,3.366,2.892c-0.368,0.321-1.278,1.062-2.407,1.555c-1.475,0.646-4.944,0.867-4.944,0.867
	s4.393,1.115,7.892-2.076c2.667,1.632,5.223,2.16,7.308,2.451c-0.129,0.535-0.649,0.914-1.712,1.711
	c-1.476,1.106-2.288,2.656-2.288,2.656s1.291-1.643,3.394-2.785c1.006-0.549,1.384-1.08,1.508-1.465
	c0.876,0.107,1.646,0.194,2.274,0.338c2.897,0.664,5.092,3.008,6.274,5.074c1.18,2.066-1.33,27.16-1.33,27.16l7.824-0.148
	c-0.221-1.549-2.141-20.737-2.214-26.198c-0.074-5.462,1.623-6.79,3.101-7.528c0.258-0.129,0.541-0.273,0.834-0.423
	c0.639,0.3,1.348,0.928,2.117,2.12c1.477,2.287,3.174,2.214,3.174,2.214c-1.477-0.295-2.878-2.065-3.469-3.396
	c-0.33-0.74-0.865-1.067-1.275-1.213c1.185-0.588,2.574-1.219,4.017-1.599c1.028,0.185,2.96,0.495,4.788,0.597
	c2.656,0.147,3.395-1.107,3.395-1.107C49.327,33.279,45.282,32.316,44.146,32.121z"/>
</svg>
